<mxfile host="www.draw.io" modified="2020-01-31T17:31:29.201Z" agent="Mozilla/5.0 (X11; Linux x86_64) AppleWebKit/537.36 (KHTML, like Gecko) Chrome/78.0.3904.70 Safari/537.36" etag="XjUNGwyXJGlsfnGcc9nK" version="12.6.2" type="github">
  <diagram name="Page-1" id="822b0af5-4adb-64df-f703-e8dfc1f81529">
    <mxGraphModel dx="1995" dy="1117" grid="1" gridSize="10" guides="1" tooltips="1" connect="1" arrows="1" fold="1" page="1" pageScale="1" pageWidth="1100" pageHeight="850" background="#ffffff" math="0" shadow="0">
      <root>
        <mxCell id="0"/>
        <mxCell id="1" parent="0"/>
        <mxCell id="7d933b09d9755ecc-9" value="Duckietown Proxy&lt;br style=&quot;font-size: 16px&quot;&gt;Docker Server&lt;br&gt;&lt;b&gt;(arm32/64)&lt;/b&gt;" style="verticalLabelPosition=bottom;aspect=fixed;html=1;verticalAlign=top;strokeColor=none;shape=mxgraph.citrix.tower_server;rounded=0;shadow=0;comic=0;fontFamily=Verdana;fontSize=16;" parent="1" vertex="1">
          <mxGeometry x="720" y="160" width="65" height="85" as="geometry"/>
        </mxCell>
        <mxCell id="RGXo1uscGhcn6T7MxgKj-2" value="Duckietown Proxy&lt;br style=&quot;font-size: 16px&quot;&gt;Docker Server&lt;br&gt;&lt;b&gt;(amd64)&lt;/b&gt;" style="verticalLabelPosition=bottom;aspect=fixed;html=1;verticalAlign=top;strokeColor=none;shape=mxgraph.citrix.tower_server;rounded=0;shadow=0;comic=0;fontFamily=Verdana;fontSize=16;" vertex="1" parent="1">
          <mxGeometry x="200" y="160" width="65" height="85" as="geometry"/>
        </mxCell>
        <mxCell id="RGXo1uscGhcn6T7MxgKj-7" value="Duckietown Jenkins&lt;br&gt;&lt;b&gt;(master node)&lt;/b&gt;&lt;br&gt;" style="verticalLabelPosition=bottom;aspect=fixed;html=1;verticalAlign=top;strokeColor=none;shape=mxgraph.citrix.tower_server;rounded=0;shadow=0;comic=0;fontFamily=Verdana;fontSize=16;" vertex="1" parent="1">
          <mxGeometry x="460" y="40" width="65" height="85" as="geometry"/>
        </mxCell>
        <mxCell id="RGXo1uscGhcn6T7MxgKj-8" value="" style="fontColor=#0066CC;verticalAlign=top;verticalLabelPosition=bottom;labelPosition=center;align=center;html=1;outlineConnect=0;fillColor=#CCCCCC;strokeColor=#6881B3;gradientColor=none;gradientDirection=north;strokeWidth=2;shape=mxgraph.networks.laptop;" vertex="1" parent="1">
          <mxGeometry x="429.25" y="380" width="100" height="55" as="geometry"/>
        </mxCell>
        <mxCell id="RGXo1uscGhcn6T7MxgKj-11" value="" style="verticalLabelPosition=bottom;html=1;verticalAlign=top;align=center;strokeColor=none;fillColor=#666666;shape=mxgraph.azure.user;labelBackgroundColor=#696969;fontSize=16;" vertex="1" parent="1">
          <mxGeometry x="508.25" y="392" width="47.5" height="50" as="geometry"/>
        </mxCell>
      </root>
    </mxGraphModel>
  </diagram>
</mxfile>
